<svg width="1000" height="1000" viewBox="0 0 1000 1000" fill="none" xmlns="http://www.w3.org/2000/svg">
<g clip-path="url(#clip0_11_4)">
<rect width="1000" height="1000" fill="white"/>
<circle cx="500" cy="500" r="500" fill="#FF7A7A"/>
<path d="M631.887 644.991C597.068 676.681 550.79 696 500 696C391.752 696 304 608.248 304 500C304 391.752 391.752 304 500 304C550.85 304 597.178 323.365 632.01 355.122L719.042 268.09C661.902 214.101 584.816 181 500 181C323.821 181 181 323.821 181 500C181 676.179 323.821 819 500 819C584.756 819 661.792 785.946 718.92 732.025L631.887 644.991Z" fill="#222A3A"/>
</g>
<defs>
<clipPath id="clip0_11_4">
<rect width="1000" height="1000" fill="white"/>
</clipPath>
</defs>
</svg>
